Coordinates
version=1
nRows=26
nColumns=22
inDegrees=yes

Units are S.I. units (second, meters, Newtons, ...)
If the header above contains a line with 'inDegrees', this indicates whether rotational values are in degrees (yes) or radians (no).

endheader
time	pelvis_tilt	pelvis_list	pelvis_rotation	pelvis_tx	pelvis_ty	pelvis_tz	hip_flexion_r	hip_adduction_r	hip_rotation_r	knee_angle_r	ankle_angle_r	subtalar_angle_r	hip_flexion_l	hip_adduction_l	hip_rotation_l	knee_angle_l	ankle_angle_l	subtalar_angle_l	lumbar_extension	lumbar_bending	lumbar_rotation
      3.63000000	     -1.67856625	      3.64909541	     14.23544878	     -0.12092853	      1.04890958	     -0.55215710	     26.94972980	     -1.71337080	    -20.45850637	    -21.72602664	      9.71096054	     -5.41038551	     -7.29699195	      1.87338690	     -7.03267903	    -12.76568469	     19.41837598	      1.75555091	     -5.71501482	     -2.57523682	    -11.21491565
      3.64000000	     -1.79526202	      3.41900677	     13.94418465	     -0.11302027	      1.04701160	     -0.55330483	     26.95572549	     -1.31729714	    -21.16874600	    -19.42410624	      9.69319235	     -5.41428145	     -7.40772991	      1.65450784	     -7.31529301	    -13.16361803	     19.79710729	      1.74498860	     -5.55131419	     -2.32524439	    -11.25558599
      3.65000000	     -1.79299715	      3.19906796	     13.67715379	     -0.10485982	      1.04531079	     -0.55438956	     26.77932048	     -0.88986243	    -21.79990099	    -17.17061600	      9.75860061	     -5.40518428	     -7.68164784	      1.40291459	     -7.54581015	    -13.51803124	     20.13247016	      1.90673273	     -5.51655365	     -2.05033220	    -11.34131422
      3.66000000	     -1.84256593	      2.97406408	     13.42442536	     -0.09651119	      1.04353348	     -0.55543228	     26.64503010	     -0.47460716	    -22.33461502	    -15.07080691	      9.86046118	     -5.32847074	     -7.89334255	      1.14662797	     -7.76608934	    -13.90989217	     20.43119648	      2.06460969	     -5.40987722	     -1.77616473	    -11.42170605
      3.67000000	     -1.87223538	      2.74727241	     13.19062427	     -0.08790100	      1.04181291	     -0.55645964	     26.47759845	     -0.07679111	    -22.83462824	    -13.17298501	      9.99644003	     -5.24043070	     -8.13888270	      0.87609954	     -7.92837879	    -14.30652111	     20.66983416	      2.27844895	     -5.30455165	     -1.48572468	    -11.50127711
      3.68000000	     -1.87553625	      2.52395258	     12.98569873	     -0.07901904	      1.04016979	     -0.55748901	     26.29161319	      0.27537565	    -23.37391886	    -11.56232075	     10.15090780	     -5.19422705	     -8.41461134	      0.59011978	     -8.05205262	    -14.72728729	     20.85645295	      2.52622914	     -5.20751906	     -1.18155173	    -11.62144852
      3.69000000	     -1.84140228	      2.30228958	     12.80035138	     -0.06984542	      1.03864502	     -0.55851897	     26.09617600	      0.57450471	    -24.00403258	    -10.31418144	     10.29601384	     -5.24011290	     -8.73819506	      0.29082576	     -8.10560564	    -15.16289198	     20.96920285	      2.82862434	     -5.12816967	     -0.85974535	    -11.75401770
      3.70000000	     -1.83863675	      2.06629241	     12.63036735	     -0.06037939	      1.03715073	     -0.55955935	     26.00331555	      0.80013807	    -24.80495236	     -9.53111218	     10.39716295	     -5.38105761	     -9.02653150	     -0.02268387	     -8.12338961	    -15.62619748	     20.99368060	      3.04632476	     -4.97941428	     -0.51494521	    -11.91492457
      3.71000000	     -1.66692757	      1.85125894	     12.46240779	     -0.05056069	      1.03603525	     -0.56054789	     25.76974530	      0.97491183	    -25.76964614	     -9.18465400	     10.46124921	     -5.77745645	     -9.52086656	     -0.35666252	     -8.05703460	    -16.07733394	     20.90844155	      3.56770881	     -5.00436290	     -0.14712284	    -12.07308542
      3.72000000	     -1.51293644	      1.62772699	     12.30061312	     -0.04046443	      1.03501237	     -0.56151517	     25.63418131	      1.06129414	    -26.94840417	     -9.34984445	     10.44896302	     -6.31860974	     -9.98072927	     -0.70331954	     -7.97814309	    -16.57980844	     20.73855474	      4.04388654	     -4.98149752	      0.23885160	    -12.26193524
      3.73000000	     -1.32927465	      1.39763974	     12.13746002	     -0.03004501	      1.03419689	     -0.56243138	     25.51653183	      1.07695008	    -28.31379347	     -9.95917075	     10.30343757	     -6.99594298	    -10.47972586	     -1.06348899	     -7.84021599	    -17.09098139	     20.44890603	      4.56762134	     -4.96201181	      0.64767557	    -12.46599149
      3.74000000	     -1.11243243	      1.16242723	     11.96688431	     -0.01930897	      1.03361208	     -0.56326503	     25.37498105	      1.03979092	    -29.79597019	    -10.90253712	     10.02277990	     -7.77188653	    -11.00754769	     -1.43852581	     -7.65752946	    -17.63522952	     20.03014751	      5.17029849	     -4.95226577	      1.07438868	    -12.66187403
      3.75000000	     -0.87448891	      0.91012738	     11.77955441	     -0.00824953	      1.03327160	     -0.56396964	     25.19026277	      0.98738753	    -31.29695011	    -12.05777607	      9.60534644	     -8.57259363	    -11.55139018	     -1.83608284	     -7.44185247	    -18.20488403	     19.47990455	      5.85687433	     -4.93380835	      1.52502302	    -12.86300705
      3.76000000	     -0.63190135	      0.62669239	     11.56980513	      0.00309425	      1.03318963	     -0.56450243	     24.95016699	      0.96825881	    -32.70295426	    -13.28495322	      9.07646425	     -9.31310357	    -12.07684703	     -2.26706167	     -7.20429696	    -18.81944184	     18.79330345	      6.61861311	     -4.88875421	      2.00848987	    -13.06936236
      3.77000000	     -0.40278499	      0.29509916	     11.32359442	      0.01465846	      1.03337554	     -0.56478108	     24.65375216	      1.04930889	    -33.86938642	    -14.44883566	      8.51285295	     -9.95419338	    -12.53633178	     -2.74419657	     -6.95136785	    -19.51965766	     17.93760252	      7.47231205	     -4.80429899	      2.52771409	    -13.23638617
      3.78000000	     -0.21195344	     -0.09064314	     11.02732368	      0.02639261	      1.03382912	     -0.56477624	     24.32874691	      1.27003465	    -34.68609806	    -15.47739656	      7.97252614	    -10.46948188	    -12.89858489	     -3.26385014	     -6.70282686	    -20.30550659	     16.92135055	      8.40050552	     -4.65670942	      3.08767361	    -13.38322242
      3.79000000	     -0.07963682	     -0.53614207	     10.68058089	      0.03823308	      1.03452732	     -0.56447649	     24.00637438	      1.65191661	    -35.12047378	    -16.33820233	      7.50811331	    -10.85926517	    -13.12199391	     -3.82711176	     -6.45811871	    -21.20595858	     15.75031606	      9.34383382	     -4.43101023	      3.68903442	    -13.49727369
      3.80000000	      0.01235242	     -0.98725425	     10.24618426	      0.05013932	      1.03549835	     -0.56382834	     23.66569174	      2.17732451	    -35.07379459	    -17.01660781	      7.19368751	    -11.19169010	    -13.23578243	     -4.37494125	     -6.25175391	    -22.21900366	     14.36139788	     10.42728364	     -4.17328271	      4.27089038	    -13.54521422
      3.81000000	      0.05526967	     -1.43492343	      9.76379693	      0.06208396	      1.03669377	     -0.56294260	     23.32339650	      2.79838153	    -34.68665804	    -17.54570063	      7.00778538	    -11.44924043	    -13.21885396	     -4.90054771	     -6.03365081	    -23.35460301	     12.78667315	     11.48692068	     -3.87354560	      4.83232392	    -13.56839465
      3.82000000	      0.07563503	     -1.84169115	      9.24258782	      0.07406334	      1.03811017	     -0.56187409	     22.94962113	      3.45939652	    -34.05356079	    -17.95457940	      6.94851982	    -11.67478554	    -13.10596524	     -5.36801010	     -5.77649485	    -24.60299875	     11.00689760	     12.56093013	     -3.57060342	      5.33950609	    -13.55966252
      3.83000000	      0.08855638	     -2.18721417	      8.70365200	      0.08606067	      1.03970482	     -0.56067951	     22.52381224	      4.11630953	    -33.27808029	    -18.25908564	      6.99832486	    -11.88925607	    -12.90519386	     -5.76338416	     -5.45800278	    -25.97009033	      9.03276607	     13.62350705	     -3.28526172	      5.77369295	    -13.53361016
      3.84000000	      0.10668692	     -2.46157544	      8.17122573	      0.09804328	      1.04143427	     -0.55940026	     22.03092304	      4.73490444	    -32.46030306	    -18.47274371	      7.13471939	    -12.10979940	    -12.61979352	     -6.08195686	     -5.04330398	    -27.45782644	      6.89167388	     14.64346725	     -3.03439937	      6.12508539	    -13.49184392
      3.85000000	      0.14138971	     -2.66147822	      7.65242217	      0.10994555	      1.04324113	     -0.55808102	     21.46236787	      5.29664053	    -31.64338740	    -18.60178931	      7.29889902	    -12.33468614	    -12.24093378	     -6.32495127	     -4.55257725	    -29.09395964	      4.62582609	     15.54762296	     -2.83699515	      6.39998109	    -13.46545832
      3.86000000	      0.19120923	     -2.80080012	      7.13270093	      0.12174099	      1.04505963	     -0.55668362	     20.81845828	      5.81678388	    -30.83551490	    -18.63923464	      7.50046524	    -12.54338619	    -11.76946565	     -6.49743287	     -3.98400566	    -30.86693188	      2.28420485	     16.25828217	     -2.69239555	      6.60604969	    -13.39657521
      3.87000000	      0.26718830	     -2.89140167	      6.63850689	      0.13336551	      1.04685686	     -0.55525534	     20.09911009	      6.28293846	    -30.11204026	    -18.60206068	      7.69877716	    -12.74060361	    -11.19839194	     -6.61769553	     -3.33064673	    -32.78860385	     -0.07855190	     16.80513693	     -2.61332664	      6.76250007	    -13.32903099
      3.88000000	      0.37555756	     -2.96366766	      6.17187886	      0.14478725	      1.04859355	     -0.55379906	     19.31071060	      6.71584257	    -29.50461072	    -18.50521168	      7.88563182	    -12.86076499	    -10.53051535	     -6.71645321	     -2.61533979	    -34.84994365	     -2.40601131	     17.13458486	     -2.60375391	      6.90308451	    -13.25988693
